<svg xmlns="http://www.w3.org/2000/svg" xmlns:xlink="http://www.w3.org/1999/xlink" width="1920" height="1080" viewBox="0 0 1920 1080">
  <defs>
    <clipPath id="clip-Web_1920_1">
      <rect width="1920" height="1080"/>
    </clipPath>
  </defs>
  <g id="Web_1920_1" data-name="Web 1920 – 1" clip-path="url(#clip-Web_1920_1)">
    <rect width="1920" height="1080" fill="#fff"/>
    <g id="Group_1" data-name="Group 1" transform="translate(359.406 1121.74) rotate(-173)">
      <g id="Ellipse_3" data-name="Ellipse 3" transform="translate(128 801)" fill="#7783ba" stroke="#7783ba" stroke-width="1">
        <ellipse cx="224.5" cy="226.5" rx="224.5" ry="226.5" stroke="none"/>
        <ellipse cx="224.5" cy="226.5" rx="224" ry="226" fill="none"/>
      </g>
    </g>
    <g id="Group_2" data-name="Group 2">
      <g id="Ellipse_1" data-name="Ellipse 1" transform="translate(-148 356)" fill="#7783ba" stroke="#7783ba" stroke-width="1">
        <circle cx="203" cy="203" r="203" stroke="none"/>
        <circle cx="203" cy="203" r="202.5" fill="none"/>
      </g>
      <g id="Ellipse_2" data-name="Ellipse 2" transform="translate(576.469 724.231) rotate(-173)" fill="#7783ba" stroke="#7783ba" stroke-width="1">
        <ellipse cx="372" cy="361.5" rx="372" ry="361.5" stroke="none"/>
        <ellipse cx="372" cy="361.5" rx="371.5" ry="361" fill="none"/>
      </g>
    </g>
    <g id="Ellipse_4" data-name="Ellipse 4" transform="translate(1360 601)" fill="#7783ba" stroke="#7783ba" stroke-width="1">
      <ellipse cx="304" cy="322.5" rx="304" ry="322.5" stroke="none"/>
      <ellipse cx="304" cy="322.5" rx="303.5" ry="322" fill="none"/>
    </g>
    <g id="Ellipse_5" data-name="Ellipse 5" transform="translate(1297.455 747.233) rotate(65)" fill="#7783ba" stroke="#7783ba" stroke-width="1">
      <ellipse cx="8" cy="8.5" rx="8" ry="8.5" stroke="none"/>
      <ellipse cx="8" cy="8.5" rx="7.5" ry="8" fill="none"/>
    </g>
    <g id="Group_5" data-name="Group 5" transform="translate(0 268.927)">
      <g id="Ellipse_5-2" data-name="Ellipse 5" transform="translate(1350 504.073)" fill="#7783ba" stroke="#7783ba" stroke-width="1">
        <ellipse cx="8" cy="8.5" rx="8" ry="8.5" stroke="none"/>
        <ellipse cx="8" cy="8.5" rx="7.5" ry="8" fill="none"/>
      </g>
      <g id="Ellipse_6" data-name="Ellipse 6" transform="translate(1395 591.073)" fill="#7783ba" stroke="#7783ba" stroke-width="1">
        <ellipse cx="10" cy="10.5" rx="10" ry="10.5" stroke="none"/>
        <ellipse cx="10" cy="10.5" rx="9.5" ry="10" fill="none"/>
      </g>
      <g id="Ellipse_7" data-name="Ellipse 7" transform="translate(1281 591.073)" fill="#7783ba" stroke="#7783ba" stroke-width="1">
        <circle cx="8.5" cy="8.5" r="8.5" stroke="none"/>
        <circle cx="8.5" cy="8.5" r="8" fill="none"/>
      </g>
      <g id="Group_6" data-name="Group 6" transform="translate(1281 504)">
        <g id="Ellipse_5-3" data-name="Ellipse 5" transform="translate(69 0.073)" fill="#7783ba" stroke="#7783ba" stroke-width="1">
          <ellipse cx="8" cy="8.5" rx="8" ry="8.5" stroke="none"/>
          <ellipse cx="8" cy="8.5" rx="7.5" ry="8" fill="none"/>
        </g>
        <g id="Ellipse_6-2" data-name="Ellipse 6" transform="translate(114 87.073)" fill="#7783ba" stroke="#7783ba" stroke-width="1">
          <ellipse cx="10" cy="10.5" rx="10" ry="10.5" stroke="none"/>
          <ellipse cx="10" cy="10.5" rx="9.5" ry="10" fill="none"/>
        </g>
        <g id="Ellipse_7-2" data-name="Ellipse 7" transform="translate(0 87.073)" fill="#7783ba" stroke="#7783ba" stroke-width="1">
          <circle cx="8.5" cy="8.5" r="8.5" stroke="none"/>
          <circle cx="8.5" cy="8.5" r="8" fill="none"/>
        </g>
      </g>
      <g id="Group_7" data-name="Group 7" transform="translate(1281 504)">
        <g id="Ellipse_5-4" data-name="Ellipse 5" transform="translate(69 0.073)" fill="#7783ba" stroke="#7783ba" stroke-width="1">
          <ellipse cx="8" cy="8.5" rx="8" ry="8.5" stroke="none"/>
          <ellipse cx="8" cy="8.5" rx="7.5" ry="8" fill="none"/>
        </g>
        <g id="Ellipse_6-3" data-name="Ellipse 6" transform="translate(114 87.073)" fill="#7783ba" stroke="#7783ba" stroke-width="1">
          <ellipse cx="10" cy="10.5" rx="10" ry="10.5" stroke="none"/>
          <ellipse cx="10" cy="10.5" rx="9.5" ry="10" fill="none"/>
        </g>
        <g id="Ellipse_7-3" data-name="Ellipse 7" transform="translate(0 87.073)" fill="#7783ba" stroke="#7783ba" stroke-width="1">
          <circle cx="8.5" cy="8.5" r="8.5" stroke="none"/>
          <circle cx="8.5" cy="8.5" r="8" fill="none"/>
        </g>
      </g>
    </g>
    <g id="Group_9" data-name="Group 9" transform="translate(2798.152 1606.507) rotate(-155)">
      <g id="Ellipse_5-5" data-name="Ellipse 5" transform="translate(1298 533)" fill="#7783ba" stroke="#7783ba" stroke-width="1">
        <ellipse cx="8" cy="8.5" rx="8" ry="8.5" stroke="none"/>
        <ellipse cx="8" cy="8.5" rx="7.5" ry="8" fill="none"/>
      </g>
      <g id="Ellipse_6-4" data-name="Ellipse 6" transform="translate(1306 504)" fill="#7783ba" stroke="#7783ba" stroke-width="1">
        <ellipse cx="10" cy="10.5" rx="10" ry="10.5" stroke="none"/>
        <ellipse cx="10" cy="10.5" rx="9.5" ry="10" fill="none"/>
      </g>
      <g id="Ellipse_7-4" data-name="Ellipse 7" transform="translate(1281 508)" fill="#7783ba" stroke="#7783ba" stroke-width="1">
        <circle cx="8.5" cy="8.5" r="8.5" stroke="none"/>
        <circle cx="8.5" cy="8.5" r="8" fill="none"/>
      </g>
    </g>
    <g id="Group_10" data-name="Group 10" transform="translate(-704 -416)">
      <g id="Ellipse_5-6" data-name="Ellipse 5" transform="translate(1298 533)" fill="#7783ba" stroke="#7783ba" stroke-width="1">
        <ellipse cx="8" cy="8.5" rx="8" ry="8.5" stroke="none"/>
        <ellipse cx="8" cy="8.5" rx="7.5" ry="8" fill="none"/>
      </g>
      <g id="Ellipse_6-5" data-name="Ellipse 6" transform="translate(1306 504)" fill="#7783ba" stroke="#7783ba" stroke-width="1">
        <ellipse cx="10" cy="10.5" rx="10" ry="10.5" stroke="none"/>
        <ellipse cx="10" cy="10.5" rx="9.5" ry="10" fill="none"/>
      </g>
      <g id="Ellipse_7-5" data-name="Ellipse 7" transform="translate(1281 508)" fill="#7783ba" stroke="#7783ba" stroke-width="1">
        <circle cx="8.5" cy="8.5" r="8.5" stroke="none"/>
        <circle cx="8.5" cy="8.5" r="8" fill="none"/>
      </g>
    </g>
    <g id="Group_11" data-name="Group 11" transform="translate(-1052 258)">
      <g id="Ellipse_5-7" data-name="Ellipse 5" transform="translate(1298 533)" fill="#7783ba" stroke="#7783ba" stroke-width="1">
        <ellipse cx="8" cy="8.5" rx="8" ry="8.5" stroke="none"/>
        <ellipse cx="8" cy="8.5" rx="7.5" ry="8" fill="none"/>
      </g>
      <g id="Ellipse_6-6" data-name="Ellipse 6" transform="translate(1306 504)" fill="#7783ba" stroke="#7783ba" stroke-width="1">
        <ellipse cx="10" cy="10.5" rx="10" ry="10.5" stroke="none"/>
        <ellipse cx="10" cy="10.5" rx="9.5" ry="10" fill="none"/>
      </g>
      <g id="Ellipse_7-6" data-name="Ellipse 7" transform="translate(1281 508)" fill="#7783ba" stroke="#7783ba" stroke-width="1">
        <circle cx="8.5" cy="8.5" r="8.5" stroke="none"/>
        <circle cx="8.5" cy="8.5" r="8" fill="none"/>
      </g>
    </g>
  </g>
</svg>
